<mxfile host="app.diagrams.net" modified="2023-12-05T12:20:04.111Z" agent="Mozilla/5.0 (Windows NT 10.0; Win64; x64) AppleWebKit/537.36 (KHTML, like Gecko) Chrome/119.0.0.0 Safari/537.36" etag="_c5EIxMx9KbBFm-N0Pbg" version="22.1.5" type="device" pages="2">
  <diagram name="Page-1" id="-euo_Hw30YZSZVMU8U-v">
    <mxGraphModel dx="1674" dy="978" grid="1" gridSize="10" guides="1" tooltips="1" connect="1" arrows="1" fold="1" page="1" pageScale="1" pageWidth="1654" pageHeight="1169" math="0" shadow="0">
      <root>
        <mxCell id="0" />
        <mxCell id="1" parent="0" />
        <mxCell id="PAZ2XYBtNi6wZJPCC69A-5" value="" style="rounded=0;whiteSpace=wrap;html=1;" parent="1" vertex="1">
          <mxGeometry x="538" y="240" width="580" height="230" as="geometry" />
        </mxCell>
        <mxCell id="PAZ2XYBtNi6wZJPCC69A-1" value="" style="rounded=0;whiteSpace=wrap;html=1;" parent="1" vertex="1">
          <mxGeometry x="538" y="470" width="580" height="164" as="geometry" />
        </mxCell>
        <mxCell id="PAZ2XYBtNi6wZJPCC69A-6" value="&lt;b&gt;Core&lt;/b&gt;" style="text;html=1;strokeColor=none;fillColor=none;align=center;verticalAlign=middle;whiteSpace=wrap;rounded=0;" parent="1" vertex="1">
          <mxGeometry x="800" y="475" width="60" height="20" as="geometry" />
        </mxCell>
        <mxCell id="PAZ2XYBtNi6wZJPCC69A-7" value="&lt;b&gt;Engine&lt;/b&gt;" style="text;html=1;strokeColor=none;fillColor=none;align=center;verticalAlign=middle;whiteSpace=wrap;rounded=0;" parent="1" vertex="1">
          <mxGeometry x="800" y="245" width="60" height="20" as="geometry" />
        </mxCell>
        <mxCell id="PAZ2XYBtNi6wZJPCC69A-41" value="" style="rounded=0;whiteSpace=wrap;html=1;" parent="1" vertex="1">
          <mxGeometry x="538" y="178" width="580" height="62" as="geometry" />
        </mxCell>
        <mxCell id="PAZ2XYBtNi6wZJPCC69A-42" value="&lt;b&gt;Runtime&lt;/b&gt;" style="text;html=1;strokeColor=none;fillColor=none;align=center;verticalAlign=middle;whiteSpace=wrap;rounded=0;" parent="1" vertex="1">
          <mxGeometry x="800" y="185" width="60" height="17" as="geometry" />
        </mxCell>
        <mxCell id="PAZ2XYBtNi6wZJPCC69A-43" value="TrilobitaEnvironment" style="rounded=0;whiteSpace=wrap;html=1;fillColor=#ffe6cc;strokeColor=#d79b00;" parent="1" vertex="1">
          <mxGeometry x="557" y="210" width="170" height="20" as="geometry" />
        </mxCell>
        <mxCell id="PAZ2XYBtNi6wZJPCC69A-44" value="JsonParser (Input/Output)" style="rounded=0;whiteSpace=wrap;html=1;shadow=0;glass=0;fillColor=#ffe6cc;strokeColor=#d79b00;" parent="1" vertex="1">
          <mxGeometry x="742" y="210" width="170" height="20" as="geometry" />
        </mxCell>
        <mxCell id="PAZ2XYBtNi6wZJPCC69A-45" value="Configuration" style="rounded=0;whiteSpace=wrap;html=1;fillColor=#ffe6cc;strokeColor=#d79b00;" parent="1" vertex="1">
          <mxGeometry x="929" y="210" width="170" height="20" as="geometry" />
        </mxCell>
        <mxCell id="PAZ2XYBtNi6wZJPCC69A-48" value="Vertex" style="rounded=0;whiteSpace=wrap;html=1;" parent="1" vertex="1">
          <mxGeometry x="1280" y="510" width="100" height="31" as="geometry" />
        </mxCell>
        <mxCell id="PAZ2XYBtNi6wZJPCC69A-50" value="PageRankVertex" style="rounded=0;whiteSpace=wrap;html=1;" parent="1" vertex="1">
          <mxGeometry x="1280" y="610" width="100" height="30" as="geometry" />
        </mxCell>
        <mxCell id="PAZ2XYBtNi6wZJPCC69A-51" value="" style="endArrow=block;endSize=16;endFill=0;html=1;rounded=0;entryX=0.5;entryY=1;entryDx=0;entryDy=0;exitX=0.5;exitY=0;exitDx=0;exitDy=0;" parent="1" source="PAZ2XYBtNi6wZJPCC69A-50" target="PAZ2XYBtNi6wZJPCC69A-48" edge="1">
          <mxGeometry width="160" relative="1" as="geometry">
            <mxPoint x="1080" y="600" as="sourcePoint" />
            <mxPoint x="1240" y="600" as="targetPoint" />
          </mxGeometry>
        </mxCell>
        <mxCell id="PAZ2XYBtNi6wZJPCC69A-52" value="PageRankValue" style="rounded=0;whiteSpace=wrap;html=1;" parent="1" vertex="1">
          <mxGeometry x="1400" y="610" width="100" height="30" as="geometry" />
        </mxCell>
        <mxCell id="PAZ2XYBtNi6wZJPCC69A-54" value="Computable" style="rounded=0;whiteSpace=wrap;html=1;" parent="1" vertex="1">
          <mxGeometry x="1400" y="510" width="100" height="31" as="geometry" />
        </mxCell>
        <mxCell id="PAZ2XYBtNi6wZJPCC69A-56" value="" style="endArrow=block;dashed=1;endFill=0;endSize=12;html=1;rounded=0;entryX=0.5;entryY=1;entryDx=0;entryDy=0;exitX=0.5;exitY=0;exitDx=0;exitDy=0;" parent="1" source="PAZ2XYBtNi6wZJPCC69A-52" target="PAZ2XYBtNi6wZJPCC69A-54" edge="1">
          <mxGeometry width="160" relative="1" as="geometry">
            <mxPoint x="1110" y="500" as="sourcePoint" />
            <mxPoint x="1270" y="500" as="targetPoint" />
          </mxGeometry>
        </mxCell>
        <mxCell id="agWFqG2GnF8fNFUKKx3O-27" value="" style="group" parent="1" vertex="1" connectable="0">
          <mxGeometry x="834" y="501" width="270" height="120" as="geometry" />
        </mxCell>
        <mxCell id="PAZ2XYBtNi6wZJPCC69A-2" value="" style="rounded=0;whiteSpace=wrap;html=1;" parent="agWFqG2GnF8fNFUKKx3O-27" vertex="1">
          <mxGeometry width="270" height="120" as="geometry" />
        </mxCell>
        <mxCell id="PAZ2XYBtNi6wZJPCC69A-36" value="Mail" style="rounded=0;whiteSpace=wrap;html=1;fillColor=#dae8fc;strokeColor=#6c8ebf;" parent="agWFqG2GnF8fNFUKKx3O-27" vertex="1">
          <mxGeometry x="10" y="44" width="120" height="20" as="geometry" />
        </mxCell>
        <mxCell id="PAZ2XYBtNi6wZJPCC69A-37" value="MailDeserializer" style="rounded=0;whiteSpace=wrap;html=1;fillColor=#dae8fc;strokeColor=#6c8ebf;" parent="agWFqG2GnF8fNFUKKx3O-27" vertex="1">
          <mxGeometry x="10" y="69" width="120" height="20" as="geometry" />
        </mxCell>
        <mxCell id="PAZ2XYBtNi6wZJPCC69A-38" value="Message" style="rounded=0;whiteSpace=wrap;html=1;fillColor=#dae8fc;strokeColor=#6c8ebf;" parent="agWFqG2GnF8fNFUKKx3O-27" vertex="1">
          <mxGeometry x="140" y="44" width="120" height="20" as="geometry" />
        </mxCell>
        <mxCell id="PAZ2XYBtNi6wZJPCC69A-39" value="MailSerializer" style="rounded=0;whiteSpace=wrap;html=1;fillColor=#dae8fc;strokeColor=#6c8ebf;" parent="agWFqG2GnF8fNFUKKx3O-27" vertex="1">
          <mxGeometry x="140" y="69" width="120" height="20" as="geometry" />
        </mxCell>
        <mxCell id="agWFqG2GnF8fNFUKKx3O-22" value="Messaging" style="text;html=1;strokeColor=none;fillColor=none;align=center;verticalAlign=middle;whiteSpace=wrap;rounded=0;" parent="agWFqG2GnF8fNFUKKx3O-27" vertex="1">
          <mxGeometry x="95" y="5.1200000000000045" width="80" height="10.61" as="geometry" />
        </mxCell>
        <mxCell id="agWFqG2GnF8fNFUKKx3O-23" value="Consumer" style="rounded=0;whiteSpace=wrap;html=1;fillColor=#dae8fc;strokeColor=#6c8ebf;" parent="agWFqG2GnF8fNFUKKx3O-27" vertex="1">
          <mxGeometry x="10" y="19.730000000000018" width="120" height="20" as="geometry" />
        </mxCell>
        <mxCell id="agWFqG2GnF8fNFUKKx3O-24" value="Producer" style="rounded=0;whiteSpace=wrap;html=1;fillColor=#dae8fc;strokeColor=#6c8ebf;" parent="agWFqG2GnF8fNFUKKx3O-27" vertex="1">
          <mxGeometry x="140" y="19.730000000000018" width="120" height="20" as="geometry" />
        </mxCell>
        <mxCell id="agWFqG2GnF8fNFUKKx3O-28" value="" style="group" parent="1" vertex="1" connectable="0">
          <mxGeometry x="552" y="501" width="270" height="120" as="geometry" />
        </mxCell>
        <mxCell id="PAZ2XYBtNi6wZJPCC69A-3" value="" style="rounded=0;whiteSpace=wrap;html=1;" parent="agWFqG2GnF8fNFUKKx3O-28" vertex="1">
          <mxGeometry width="270" height="120" as="geometry" />
        </mxCell>
        <mxCell id="PAZ2XYBtNi6wZJPCC69A-18" value="Common" style="text;html=1;strokeColor=none;fillColor=none;align=center;verticalAlign=middle;whiteSpace=wrap;rounded=0;" parent="agWFqG2GnF8fNFUKKx3O-28" vertex="1">
          <mxGeometry x="12.32000000000005" y="5.1200000000000045" width="47.68" height="10.61" as="geometry" />
        </mxCell>
        <mxCell id="PAZ2XYBtNi6wZJPCC69A-19" value="VertexGroup" style="rounded=0;whiteSpace=wrap;html=1;glass=0;shadow=0;fillColor=#ffe6cc;strokeColor=#d79b00;" parent="agWFqG2GnF8fNFUKKx3O-28" vertex="1">
          <mxGeometry x="9.480000000000018" y="44.48000000000002" width="120" height="20" as="geometry" />
        </mxCell>
        <mxCell id="agWFqG2GnF8fNFUKKx3O-17" value="Graph" style="rounded=0;whiteSpace=wrap;html=1;fillColor=#ffe6cc;strokeColor=#d79b00;" parent="agWFqG2GnF8fNFUKKx3O-28" vertex="1">
          <mxGeometry x="9.480000000000018" y="19.730000000000018" width="120" height="20" as="geometry" />
        </mxCell>
        <mxCell id="agWFqG2GnF8fNFUKKx3O-18" value="Vertex" style="rounded=0;whiteSpace=wrap;html=1;glass=0;shadow=0;fillColor=#ffe6cc;strokeColor=#d79b00;" parent="agWFqG2GnF8fNFUKKx3O-28" vertex="1">
          <mxGeometry x="140" y="19.730000000000018" width="120" height="20" as="geometry" />
        </mxCell>
        <mxCell id="agWFqG2GnF8fNFUKKx3O-19" value="Edge" style="rounded=0;whiteSpace=wrap;html=1;glass=0;shadow=0;fillColor=#ffe6cc;strokeColor=#d79b00;" parent="agWFqG2GnF8fNFUKKx3O-28" vertex="1">
          <mxGeometry x="140" y="44.48000000000002" width="120" height="20" as="geometry" />
        </mxCell>
        <mxCell id="agWFqG2GnF8fNFUKKx3O-20" value="Snapshot" style="rounded=0;whiteSpace=wrap;html=1;glass=0;shadow=0;fillColor=#d5e8d4;strokeColor=#82b366;" parent="agWFqG2GnF8fNFUKKx3O-28" vertex="1">
          <mxGeometry x="140" y="69" width="120" height="20" as="geometry" />
        </mxCell>
        <mxCell id="PAZ2XYBtNi6wZJPCC69A-34" value="Computable" style="rounded=0;whiteSpace=wrap;html=1;glass=0;shadow=0;fillColor=#ffe6cc;strokeColor=#d79b00;" parent="agWFqG2GnF8fNFUKKx3O-28" vertex="1">
          <mxGeometry x="9" y="69" width="120" height="20" as="geometry" />
        </mxCell>
        <mxCell id="PAZ2XYBtNi6wZJPCC69A-40" value="Exception" style="rounded=0;whiteSpace=wrap;html=1;fillColor=#ffe6cc;strokeColor=#d79b00;" parent="agWFqG2GnF8fNFUKKx3O-28" vertex="1">
          <mxGeometry x="9" y="94" width="120" height="20" as="geometry" />
        </mxCell>
        <mxCell id="agWFqG2GnF8fNFUKKx3O-30" value="" style="rounded=0;whiteSpace=wrap;html=1;fillColor=#ffe6cc;strokeColor=#d79b00;" parent="1" vertex="1">
          <mxGeometry x="557" y="155" width="40" height="12" as="geometry" />
        </mxCell>
        <mxCell id="agWFqG2GnF8fNFUKKx3O-31" value="Execution" style="text;html=1;strokeColor=none;fillColor=none;align=center;verticalAlign=middle;whiteSpace=wrap;rounded=0;" parent="1" vertex="1">
          <mxGeometry x="573" y="146" width="113" height="30" as="geometry" />
        </mxCell>
        <mxCell id="agWFqG2GnF8fNFUKKx3O-34" value="" style="rounded=0;whiteSpace=wrap;html=1;fillColor=#dae8fc;strokeColor=#6c8ebf;" parent="1" vertex="1">
          <mxGeometry x="679" y="155" width="40" height="12" as="geometry" />
        </mxCell>
        <mxCell id="agWFqG2GnF8fNFUKKx3O-35" value="Communication" style="text;html=1;strokeColor=none;fillColor=none;align=center;verticalAlign=middle;whiteSpace=wrap;rounded=0;" parent="1" vertex="1">
          <mxGeometry x="709" y="146" width="113" height="30" as="geometry" />
        </mxCell>
        <mxCell id="agWFqG2GnF8fNFUKKx3O-36" value="" style="rounded=0;whiteSpace=wrap;html=1;fillColor=#e1d5e7;strokeColor=#9673a6;" parent="1" vertex="1">
          <mxGeometry x="984" y="155" width="40" height="12" as="geometry" />
        </mxCell>
        <mxCell id="agWFqG2GnF8fNFUKKx3O-37" value="Performance Monitor" style="text;html=1;strokeColor=none;fillColor=none;align=center;verticalAlign=middle;whiteSpace=wrap;rounded=0;" parent="1" vertex="1">
          <mxGeometry x="1025" y="146" width="79" height="30" as="geometry" />
        </mxCell>
        <mxCell id="agWFqG2GnF8fNFUKKx3O-38" value="" style="rounded=0;whiteSpace=wrap;html=1;fillColor=#d5e8d4;strokeColor=#82b366;" parent="1" vertex="1">
          <mxGeometry x="831" y="155" width="40" height="12" as="geometry" />
        </mxCell>
        <mxCell id="agWFqG2GnF8fNFUKKx3O-39" value="Fault Tolerance" style="text;html=1;strokeColor=none;fillColor=none;align=center;verticalAlign=middle;whiteSpace=wrap;rounded=0;" parent="1" vertex="1">
          <mxGeometry x="860" y="146" width="113" height="30" as="geometry" />
        </mxCell>
        <mxCell id="PAZ2XYBtNi6wZJPCC69A-8" value="" style="rounded=0;whiteSpace=wrap;html=1;" parent="1" vertex="1">
          <mxGeometry x="743" y="272" width="168" height="184" as="geometry" />
        </mxCell>
        <mxCell id="PAZ2XYBtNi6wZJPCC69A-25" value="MasterServer" style="text;html=1;strokeColor=none;fillColor=none;align=center;verticalAlign=middle;whiteSpace=wrap;rounded=0;" parent="1" vertex="1">
          <mxGeometry x="769" y="277" width="40" height="10" as="geometry" />
        </mxCell>
        <mxCell id="PAZ2XYBtNi6wZJPCC69A-26" value="MessageConsumer" style="rounded=0;whiteSpace=wrap;html=1;fillColor=#dae8fc;strokeColor=#6c8ebf;" parent="1" vertex="1">
          <mxGeometry x="752" y="361" width="150" height="20" as="geometry" />
        </mxCell>
        <mxCell id="PAZ2XYBtNi6wZJPCC69A-27" value="MessageProducer" style="rounded=0;whiteSpace=wrap;html=1;fillColor=#dae8fc;strokeColor=#6c8ebf;" parent="1" vertex="1">
          <mxGeometry x="752" y="384" width="150" height="20" as="geometry" />
        </mxCell>
        <mxCell id="PAZ2XYBtNi6wZJPCC69A-30" value="GraphPartitioner" style="rounded=0;whiteSpace=wrap;html=1;fillColor=#ffe6cc;strokeColor=#d79b00;" parent="1" vertex="1">
          <mxGeometry x="752" y="338" width="150" height="20" as="geometry" />
        </mxCell>
        <mxCell id="PAZ2XYBtNi6wZJPCC69A-28" value="HeartbeatManager" style="rounded=0;whiteSpace=wrap;html=1;shadow=0;glass=0;fillColor=#d5e8d4;strokeColor=#82b366;" parent="1" vertex="1">
          <mxGeometry x="752" y="430" width="150" height="20" as="geometry" />
        </mxCell>
        <mxCell id="PAZ2XYBtNi6wZJPCC69A-29" value="MasterExecutionManager" style="rounded=0;whiteSpace=wrap;html=1;fillColor=#ffe6cc;strokeColor=#d79b00;" parent="1" vertex="1">
          <mxGeometry x="752" y="292" width="150" height="20" as="geometry" />
        </mxCell>
        <mxCell id="agWFqG2GnF8fNFUKKx3O-4" value="MasterFunctionableRunner" style="rounded=0;whiteSpace=wrap;html=1;shadow=0;glass=0;fillColor=#ffe6cc;strokeColor=#d79b00;" parent="1" vertex="1">
          <mxGeometry x="752" y="315" width="150" height="20" as="geometry" />
        </mxCell>
        <mxCell id="PAZ2XYBtNi6wZJPCC69A-9" value="" style="rounded=0;whiteSpace=wrap;html=1;" parent="1" vertex="1">
          <mxGeometry x="558" y="272" width="168" height="156" as="geometry" />
        </mxCell>
        <mxCell id="PAZ2XYBtNi6wZJPCC69A-17" value="WorkerExecutionManager" style="rounded=0;whiteSpace=wrap;html=1;fillColor=#ffe6cc;strokeColor=#d79b00;" parent="1" vertex="1">
          <mxGeometry x="567" y="293" width="150" height="20" as="geometry" />
        </mxCell>
        <mxCell id="PAZ2XYBtNi6wZJPCC69A-21" value="WorkerServer" style="text;html=1;strokeColor=none;fillColor=none;align=center;verticalAlign=middle;whiteSpace=wrap;rounded=0;" parent="1" vertex="1">
          <mxGeometry x="583.2" y="278" width="48" height="10" as="geometry" />
        </mxCell>
        <mxCell id="PAZ2XYBtNi6wZJPCC69A-22" value="MessageConsumer" style="rounded=0;whiteSpace=wrap;html=1;fillColor=#dae8fc;strokeColor=#6c8ebf;" parent="1" vertex="1">
          <mxGeometry x="567" y="347" width="150" height="20" as="geometry" />
        </mxCell>
        <mxCell id="PAZ2XYBtNi6wZJPCC69A-23" value="MessageProducer" style="rounded=0;whiteSpace=wrap;html=1;fillColor=#dae8fc;strokeColor=#6c8ebf;" parent="1" vertex="1">
          <mxGeometry x="567" y="374" width="150" height="20" as="geometry" />
        </mxCell>
        <mxCell id="PAZ2XYBtNi6wZJPCC69A-14" value="WorkerFunctionableRunner" style="rounded=0;whiteSpace=wrap;html=1;shadow=0;glass=0;fillColor=#ffe6cc;strokeColor=#d79b00;" parent="1" vertex="1">
          <mxGeometry x="567" y="320" width="150" height="20" as="geometry" />
        </mxCell>
        <mxCell id="agWFqG2GnF8fNFUKKx3O-1" value="HeartbeatSender" style="rounded=0;whiteSpace=wrap;html=1;fillColor=#d5e8d4;strokeColor=#82b366;" parent="1" vertex="1">
          <mxGeometry x="567" y="401" width="150" height="20" as="geometry" />
        </mxCell>
        <mxCell id="agWFqG2GnF8fNFUKKx3O-40" value="Synchronizer" style="rounded=0;whiteSpace=wrap;html=1;shadow=0;glass=0;fillColor=#d5e8d4;strokeColor=#82b366;" parent="1" vertex="1">
          <mxGeometry x="752" y="407" width="150" height="20" as="geometry" />
        </mxCell>
        <mxCell id="agWFqG2GnF8fNFUKKx3O-8" value="" style="rounded=0;whiteSpace=wrap;html=1;" parent="1" vertex="1">
          <mxGeometry x="930" y="272" width="168" height="98" as="geometry" />
        </mxCell>
        <mxCell id="agWFqG2GnF8fNFUKKx3O-9" value="Monitor" style="text;html=1;strokeColor=none;fillColor=none;align=center;verticalAlign=middle;whiteSpace=wrap;rounded=0;" parent="1" vertex="1">
          <mxGeometry x="936" y="277" width="48" height="10" as="geometry" />
        </mxCell>
        <mxCell id="agWFqG2GnF8fNFUKKx3O-10" value="" style="rounded=0;whiteSpace=wrap;html=1;" parent="1" vertex="1">
          <mxGeometry x="938" y="290" width="150" height="74" as="geometry" />
        </mxCell>
        <mxCell id="agWFqG2GnF8fNFUKKx3O-11" value="Metrics" style="text;html=1;strokeColor=none;fillColor=none;align=center;verticalAlign=middle;whiteSpace=wrap;rounded=0;" parent="1" vertex="1">
          <mxGeometry x="945" y="296" width="48" height="10" as="geometry" />
        </mxCell>
        <mxCell id="agWFqG2GnF8fNFUKKx3O-13" value="SuperstepMetrics" style="rounded=0;whiteSpace=wrap;html=1;fillColor=#e1d5e7;strokeColor=#9673a6;" parent="1" vertex="1">
          <mxGeometry x="947.5" y="310" width="131" height="20" as="geometry" />
        </mxCell>
        <mxCell id="agWFqG2GnF8fNFUKKx3O-14" value="OverallMetrics" style="rounded=0;whiteSpace=wrap;html=1;fillColor=#e1d5e7;strokeColor=#9673a6;" parent="1" vertex="1">
          <mxGeometry x="947.5" y="336.5" width="131" height="20" as="geometry" />
        </mxCell>
      </root>
    </mxGraphModel>
  </diagram>
  <diagram id="KWPRfLaaVRM2a7MRNAb3" name="Page-2">
    <mxGraphModel dx="1172" dy="684" grid="1" gridSize="10" guides="1" tooltips="1" connect="1" arrows="1" fold="1" page="1" pageScale="1" pageWidth="1654" pageHeight="1169" math="0" shadow="0">
      <root>
        <mxCell id="0" />
        <mxCell id="1" parent="0" />
        <mxCell id="y9cM98LLDuyRFcSOfMC3-9" style="edgeStyle=orthogonalEdgeStyle;rounded=1;orthogonalLoop=1;jettySize=auto;html=1;entryX=0.5;entryY=0;entryDx=0;entryDy=0;endArrow=openThin;endFill=0;startArrow=openThin;startFill=0;" parent="1" source="y9cM98LLDuyRFcSOfMC3-1" target="y9cM98LLDuyRFcSOfMC3-3" edge="1">
          <mxGeometry relative="1" as="geometry" />
        </mxCell>
        <mxCell id="y9cM98LLDuyRFcSOfMC3-13" style="edgeStyle=orthogonalEdgeStyle;orthogonalLoop=1;jettySize=auto;html=1;entryX=0;entryY=0.5;entryDx=0;entryDy=0;strokeColor=default;rounded=1;endArrow=openThin;endFill=0;exitX=1.003;exitY=0.108;exitDx=0;exitDy=0;startArrow=openThin;startFill=0;exitPerimeter=0;" parent="1" source="y9cM98LLDuyRFcSOfMC3-1" target="y9cM98LLDuyRFcSOfMC3-5" edge="1">
          <mxGeometry relative="1" as="geometry" />
        </mxCell>
        <mxCell id="y9cM98LLDuyRFcSOfMC3-1" value="Master" style="rounded=0;whiteSpace=wrap;html=1;shadow=1;" parent="1" vertex="1">
          <mxGeometry x="560" y="230" width="140" height="70" as="geometry" />
        </mxCell>
        <mxCell id="y9cM98LLDuyRFcSOfMC3-2" value="Worker" style="rounded=0;whiteSpace=wrap;html=1;shadow=1;" parent="1" vertex="1">
          <mxGeometry x="390" y="410" width="140" height="70" as="geometry" />
        </mxCell>
        <mxCell id="y9cM98LLDuyRFcSOfMC3-3" value="Worker" style="rounded=0;whiteSpace=wrap;html=1;shadow=1;" parent="1" vertex="1">
          <mxGeometry x="560" y="410" width="140" height="70" as="geometry" />
        </mxCell>
        <mxCell id="y9cM98LLDuyRFcSOfMC3-4" value="Worker" style="rounded=0;whiteSpace=wrap;html=1;shadow=1;" parent="1" vertex="1">
          <mxGeometry x="730" y="410" width="140" height="70" as="geometry" />
        </mxCell>
        <mxCell id="y9cM98LLDuyRFcSOfMC3-5" value="Master Replica" style="rounded=0;whiteSpace=wrap;html=1;glass=0;shadow=1;" parent="1" vertex="1">
          <mxGeometry x="840" y="212" width="70" height="50" as="geometry" />
        </mxCell>
        <mxCell id="y9cM98LLDuyRFcSOfMC3-6" value="Master Replica" style="rounded=0;whiteSpace=wrap;html=1;shadow=1;" parent="1" vertex="1">
          <mxGeometry x="840" y="269" width="70" height="50" as="geometry" />
        </mxCell>
        <mxCell id="y9cM98LLDuyRFcSOfMC3-10" style="edgeStyle=orthogonalEdgeStyle;rounded=1;orthogonalLoop=1;jettySize=auto;html=1;entryX=0.5;entryY=0;entryDx=0;entryDy=0;endArrow=openThin;endFill=0;startArrow=openThin;startFill=0;" parent="1" target="y9cM98LLDuyRFcSOfMC3-4" edge="1">
          <mxGeometry relative="1" as="geometry">
            <mxPoint x="650" y="300" as="sourcePoint" />
            <mxPoint x="640" y="420" as="targetPoint" />
            <Array as="points">
              <mxPoint x="650" y="300" />
              <mxPoint x="650" y="380" />
              <mxPoint x="850" y="380" />
            </Array>
          </mxGeometry>
        </mxCell>
        <mxCell id="y9cM98LLDuyRFcSOfMC3-11" style="edgeStyle=orthogonalEdgeStyle;rounded=1;orthogonalLoop=1;jettySize=auto;html=1;entryX=0.5;entryY=0;entryDx=0;entryDy=0;endArrow=openThin;endFill=0;shadow=0;startArrow=openThin;startFill=0;" parent="1" target="y9cM98LLDuyRFcSOfMC3-2" edge="1">
          <mxGeometry relative="1" as="geometry">
            <mxPoint x="610" y="300" as="sourcePoint" />
            <mxPoint x="860" y="420" as="targetPoint" />
            <Array as="points">
              <mxPoint x="610" y="300" />
              <mxPoint x="610" y="380" />
              <mxPoint x="410" y="380" />
            </Array>
          </mxGeometry>
        </mxCell>
        <mxCell id="y9cM98LLDuyRFcSOfMC3-17" style="edgeStyle=orthogonalEdgeStyle;orthogonalLoop=1;jettySize=auto;html=1;entryX=0;entryY=0.5;entryDx=0;entryDy=0;strokeColor=default;rounded=1;endArrow=openThin;endFill=0;exitX=1.003;exitY=0.907;exitDx=0;exitDy=0;startArrow=openThin;startFill=0;exitPerimeter=0;" parent="1" source="y9cM98LLDuyRFcSOfMC3-1" target="y9cM98LLDuyRFcSOfMC3-6" edge="1">
          <mxGeometry relative="1" as="geometry">
            <mxPoint x="710" y="258" as="sourcePoint" />
            <mxPoint x="810" y="185" as="targetPoint" />
          </mxGeometry>
        </mxCell>
        <mxCell id="y9cM98LLDuyRFcSOfMC3-19" value="&lt;font style=&quot;font-size: 10px;&quot;&gt;&amp;nbsp;Workers Heartbeats&lt;br style=&quot;border-color: var(--border-color);&quot;&gt;&lt;span style=&quot;background-color: rgb(255, 255, 255);&quot;&gt;&amp;nbsp;Superstep Coordination Signals&amp;nbsp;&lt;/span&gt;&lt;br style=&quot;border-color: var(--border-color);&quot;&gt;&lt;span style=&quot;background-color: rgb(255, 255, 255);&quot;&gt;Snapshots&lt;/span&gt;&lt;/font&gt;" style="rounded=1;whiteSpace=wrap;html=1;glass=0;shadow=0;dashed=1;" parent="1" vertex="1">
          <mxGeometry x="443" y="324" width="160" height="50" as="geometry" />
        </mxCell>
        <mxCell id="y9cM98LLDuyRFcSOfMC3-21" value="&lt;font style=&quot;font-size: 10px;&quot;&gt;Master Heartbeats&amp;nbsp;&lt;br style=&quot;border-color: var(--border-color);&quot;&gt;&lt;span style=&quot;background-color: rgb(255, 255, 255);&quot;&gt;Snapshot SYNC&lt;/span&gt;&lt;/font&gt;" style="rounded=1;whiteSpace=wrap;html=1;glass=0;shadow=0;dashed=1;" parent="1" vertex="1">
          <mxGeometry x="717" y="245" width="110" height="40" as="geometry" />
        </mxCell>
      </root>
    </mxGraphModel>
  </diagram>
</mxfile>
